<?xml version="1.0" encoding="utf-8"?>
<svg xmlns="http://www.w3.org/2000/svg" xmlns:xlink="http://www.w3.org/1999/xlink" width="600" height="400" viewBox="0 0 600 400">
<defs>
  <clipPath id="clip4400">
    <rect x="0" y="0" width="600" height="400"/>
  </clipPath>
</defs>
<polygon clip-path="url(#clip4400)" points="
0,400 600,400 600,0 0,0 
  " fill="#ffffff" fill-opacity="1"/>
<defs>
  <clipPath id="clip4401">
    <rect x="120" y="0" width="421" height="400"/>
  </clipPath>
</defs>
<polygon clip-path="url(#clip4400)" points="
29.1292,291.367 580.315,291.367 580.315,31.4961 29.1292,31.4961 
  " fill="#ffffff" fill-opacity="1"/>
<defs>
  <clipPath id="clip4402">
    <rect x="29" y="31" width="552" height="261"/>
  </clipPath>
</defs>
<polyline clip-path="url(#clip4402)" style="stroke:#000000; stroke-width:0.5; stroke-opacity:0.1; fill:none" points="
  124.988,291.367 124.988,31.4961 
  "/>
<polyline clip-path="url(#clip4402)" style="stroke:#000000; stroke-width:0.5; stroke-opacity:0.1; fill:none" points="
  244.811,291.367 244.811,31.4961 
  "/>
<polyline clip-path="url(#clip4402)" style="stroke:#000000; stroke-width:0.5; stroke-opacity:0.1; fill:none" points="
  364.634,291.367 364.634,31.4961 
  "/>
<polyline clip-path="url(#clip4402)" style="stroke:#000000; stroke-width:0.5; stroke-opacity:0.1; fill:none" points="
  484.457,291.367 484.457,31.4961 
  "/>
<polyline clip-path="url(#clip4402)" style="stroke:#000000; stroke-width:0.5; stroke-opacity:0.1; fill:none" points="
  29.1292,278.913 580.315,278.913 
  "/>
<polyline clip-path="url(#clip4402)" style="stroke:#000000; stroke-width:0.5; stroke-opacity:0.1; fill:none" points="
  29.1292,223.313 580.315,223.313 
  "/>
<polyline clip-path="url(#clip4402)" style="stroke:#000000; stroke-width:0.5; stroke-opacity:0.1; fill:none" points="
  29.1292,167.714 580.315,167.714 
  "/>
<polyline clip-path="url(#clip4402)" style="stroke:#000000; stroke-width:0.5; stroke-opacity:0.1; fill:none" points="
  29.1292,112.115 580.315,112.115 
  "/>
<polyline clip-path="url(#clip4402)" style="stroke:#000000; stroke-width:0.5; stroke-opacity:0.1; fill:none" points="
  29.1292,56.5157 580.315,56.5157 
  "/>
<polyline clip-path="url(#clip4400)" style="stroke:#000000; stroke-width:1; stroke-opacity:1; fill:none" points="
  29.1292,291.367 580.315,291.367 
  "/>
<polyline clip-path="url(#clip4400)" style="stroke:#000000; stroke-width:1; stroke-opacity:1; fill:none" points="
  29.1292,291.367 29.1292,31.4961 
  "/>
<polyline clip-path="url(#clip4400)" style="stroke:#000000; stroke-width:1; stroke-opacity:1; fill:none" points="
  124.988,291.367 124.988,287.469 
  "/>
<polyline clip-path="url(#clip4400)" style="stroke:#000000; stroke-width:1; stroke-opacity:1; fill:none" points="
  244.811,291.367 244.811,287.469 
  "/>
<polyline clip-path="url(#clip4400)" style="stroke:#000000; stroke-width:1; stroke-opacity:1; fill:none" points="
  364.634,291.367 364.634,287.469 
  "/>
<polyline clip-path="url(#clip4400)" style="stroke:#000000; stroke-width:1; stroke-opacity:1; fill:none" points="
  484.457,291.367 484.457,287.469 
  "/>
<polyline clip-path="url(#clip4400)" style="stroke:#000000; stroke-width:1; stroke-opacity:1; fill:none" points="
  29.1292,278.913 37.397,278.913 
  "/>
<polyline clip-path="url(#clip4400)" style="stroke:#000000; stroke-width:1; stroke-opacity:1; fill:none" points="
  29.1292,223.313 37.397,223.313 
  "/>
<polyline clip-path="url(#clip4400)" style="stroke:#000000; stroke-width:1; stroke-opacity:1; fill:none" points="
  29.1292,167.714 37.397,167.714 
  "/>
<polyline clip-path="url(#clip4400)" style="stroke:#000000; stroke-width:1; stroke-opacity:1; fill:none" points="
  29.1292,112.115 37.397,112.115 
  "/>
<polyline clip-path="url(#clip4400)" style="stroke:#000000; stroke-width:1; stroke-opacity:1; fill:none" points="
  29.1292,56.5157 37.397,56.5157 
  "/>
<g clip-path="url(#clip4400)">
<text style="fill:#000000; fill-opacity:1; font-family:Arial,Helvetica Neue,Helvetica,sans-serif; font-size:12; text-anchor:middle;" transform="rotate(0, 124.988, 305.167)" x="124.988" y="305.167">5</text>
</g>
<g clip-path="url(#clip4400)">
<text style="fill:#000000; fill-opacity:1; font-family:Arial,Helvetica Neue,Helvetica,sans-serif; font-size:12; text-anchor:middle;" transform="rotate(0, 244.811, 305.167)" x="244.811" y="305.167">10</text>
</g>
<g clip-path="url(#clip4400)">
<text style="fill:#000000; fill-opacity:1; font-family:Arial,Helvetica Neue,Helvetica,sans-serif; font-size:12; text-anchor:middle;" transform="rotate(0, 364.634, 305.167)" x="364.634" y="305.167">15</text>
</g>
<g clip-path="url(#clip4400)">
<text style="fill:#000000; fill-opacity:1; font-family:Arial,Helvetica Neue,Helvetica,sans-serif; font-size:12; text-anchor:middle;" transform="rotate(0, 484.457, 305.167)" x="484.457" y="305.167">20</text>
</g>
<g clip-path="url(#clip4400)">
<text style="fill:#000000; fill-opacity:1; font-family:Arial,Helvetica Neue,Helvetica,sans-serif; font-size:12; text-anchor:end;" transform="rotate(0, 23.1292, 283.413)" x="23.1292" y="283.413">0</text>
</g>
<g clip-path="url(#clip4400)">
<text style="fill:#000000; fill-opacity:1; font-family:Arial,Helvetica Neue,Helvetica,sans-serif; font-size:12; text-anchor:end;" transform="rotate(0, 23.1292, 227.813)" x="23.1292" y="227.813">20</text>
</g>
<g clip-path="url(#clip4400)">
<text style="fill:#000000; fill-opacity:1; font-family:Arial,Helvetica Neue,Helvetica,sans-serif; font-size:12; text-anchor:end;" transform="rotate(0, 23.1292, 172.214)" x="23.1292" y="172.214">40</text>
</g>
<g clip-path="url(#clip4400)">
<text style="fill:#000000; fill-opacity:1; font-family:Arial,Helvetica Neue,Helvetica,sans-serif; font-size:12; text-anchor:end;" transform="rotate(0, 23.1292, 116.615)" x="23.1292" y="116.615">60</text>
</g>
<g clip-path="url(#clip4400)">
<text style="fill:#000000; fill-opacity:1; font-family:Arial,Helvetica Neue,Helvetica,sans-serif; font-size:12; text-anchor:end;" transform="rotate(0, 23.1292, 61.0157)" x="23.1292" y="61.0157">80</text>
</g>
<g clip-path="url(#clip4400)">
<text style="fill:#000000; fill-opacity:1; font-family:Arial,Helvetica Neue,Helvetica,sans-serif; font-size:21; text-anchor:middle;" transform="rotate(0, 304.722, 18)" x="304.722" y="18">Dispatch</text>
</g>
<polygon clip-path="url(#clip4402)" points="
29.1292,223.313 53.0938,223.313 77.0584,223.313 101.023,223.313 124.988,223.313 148.952,223.313 172.917,223.313 196.881,223.313 220.846,223.313 244.811,223.313 
  268.775,223.313 292.74,223.313 316.704,223.313 340.669,223.313 364.634,223.313 388.598,223.313 412.563,223.313 436.527,223.313 460.492,223.313 484.457,223.313 
  508.421,223.313 532.386,223.313 556.35,223.313 580.315,223.313 580.315,278.913 556.35,278.913 532.386,278.913 508.421,278.913 484.457,278.913 460.492,278.913 
  436.527,278.913 412.563,278.913 388.598,278.913 364.634,278.913 340.669,278.913 316.704,278.913 292.74,278.913 268.775,278.913 244.811,278.913 220.846,278.913 
  196.881,278.913 172.917,278.913 148.952,278.913 124.988,278.913 101.023,278.913 77.0584,278.913 53.0938,278.913 29.1292,278.913 
  " fill="#ff0000" fill-opacity="1"/>
<polyline clip-path="url(#clip4402)" style="stroke:#ff0000; stroke-width:1; stroke-opacity:1; fill:none" points="
  29.1292,223.313 53.0938,223.313 77.0584,223.313 101.023,223.313 124.988,223.313 148.952,223.313 172.917,223.313 196.881,223.313 220.846,223.313 244.811,223.313 
  268.775,223.313 292.74,223.313 316.704,223.313 340.669,223.313 364.634,223.313 388.598,223.313 412.563,223.313 436.527,223.313 460.492,223.313 484.457,223.313 
  508.421,223.313 532.386,223.313 556.35,223.313 580.315,223.313 
  "/>
<polygon clip-path="url(#clip4402)" points="
29.1292,148.032 53.0938,139.915 77.0584,151.36 101.023,160.764 124.988,147.573 148.952,139.915 172.917,139.915 196.881,139.915 220.846,139.915 244.811,139.915 
  268.775,139.915 292.74,139.915 316.704,139.915 340.669,139.915 364.634,139.915 388.598,139.915 412.563,139.915 436.527,139.915 460.492,139.915 484.457,139.915 
  508.421,139.915 532.386,139.915 556.35,139.915 580.315,139.915 580.315,223.313 556.35,223.313 532.386,223.313 508.421,223.313 484.457,223.313 460.492,223.313 
  436.527,223.313 412.563,223.313 388.598,223.313 364.634,223.313 340.669,223.313 316.704,223.313 292.74,223.313 268.775,223.313 244.811,223.313 220.846,223.313 
  196.881,223.313 172.917,223.313 148.952,223.313 124.988,223.313 101.023,223.313 77.0584,223.313 53.0938,223.313 29.1292,223.313 
  " fill="#a52a2a" fill-opacity="1"/>
<polyline clip-path="url(#clip4402)" style="stroke:#a52a2a; stroke-width:1; stroke-opacity:1; fill:none" points="
  29.1292,148.032 53.0938,139.915 77.0584,151.36 101.023,160.764 124.988,147.573 148.952,139.915 172.917,139.915 196.881,139.915 220.846,139.915 244.811,139.915 
  268.775,139.915 292.74,139.915 316.704,139.915 340.669,139.915 364.634,139.915 388.598,139.915 412.563,139.915 436.527,139.915 460.492,139.915 484.457,139.915 
  508.421,139.915 532.386,139.915 556.35,139.915 580.315,139.915 
  "/>
<polygon clip-path="url(#clip4402)" points="
29.1292,148.032 53.0938,139.915 77.0584,151.36 101.023,160.764 124.988,147.573 148.952,135.953 172.917,110.405 196.881,98.5487 220.846,114.631 244.811,126.529 
  268.775,134.035 292.74,135.091 316.704,123.513 340.669,111.934 364.634,97.8954 388.598,84.8296 412.563,74.0851 436.527,70.4155 460.492,70.4155 484.457,70.4155 
  508.421,70.4155 532.386,70.4155 556.35,70.4155 580.315,98.7711 580.315,139.915 556.35,139.915 532.386,139.915 508.421,139.915 484.457,139.915 460.492,139.915 
  436.527,139.915 412.563,139.915 388.598,139.915 364.634,139.915 340.669,139.915 316.704,139.915 292.74,139.915 268.775,139.915 244.811,139.915 220.846,139.915 
  196.881,139.915 172.917,139.915 148.952,139.915 124.988,147.573 101.023,160.764 77.0584,151.36 53.0938,139.915 29.1292,148.032 
  " fill="#808080" fill-opacity="1"/>
<polyline clip-path="url(#clip4402)" style="stroke:#808080; stroke-width:1; stroke-opacity:1; fill:none" points="
  29.1292,148.032 53.0938,139.915 77.0584,151.36 101.023,160.764 124.988,147.573 148.952,135.953 172.917,110.405 196.881,98.5487 220.846,114.631 244.811,126.529 
  268.775,134.035 292.74,135.091 316.704,123.513 340.669,111.934 364.634,97.8954 388.598,84.8296 412.563,74.0851 436.527,70.4155 460.492,70.4155 484.457,70.4155 
  508.421,70.4155 532.386,70.4155 556.35,70.4155 580.315,98.7711 
  "/>
<polygon clip-path="url(#clip4402)" points="
29.1292,148.032 53.0938,139.915 77.0584,151.36 101.023,160.764 124.988,147.573 148.952,135.953 172.917,110.405 196.881,98.5487 220.846,114.631 244.811,126.529 
  268.775,134.035 292.74,135.091 316.704,123.513 340.669,111.934 364.634,97.8954 388.598,84.8296 412.563,74.0851 436.527,65.9259 460.492,62.298 484.457,59.0733 
  508.421,63.1876 532.386,60.8524 556.35,69.0811 580.315,98.7711 580.315,98.7711 556.35,70.4155 532.386,70.4155 508.421,70.4155 484.457,70.4155 460.492,70.4155 
  436.527,70.4155 412.563,74.0851 388.598,84.8296 364.634,97.8954 340.669,111.934 316.704,123.513 292.74,135.091 268.775,134.035 244.811,126.529 220.846,114.631 
  196.881,98.5487 172.917,110.405 148.952,135.953 124.988,147.573 101.023,160.764 77.0584,151.36 53.0938,139.915 29.1292,148.032 
  " fill="#ffa500" fill-opacity="1"/>
<polyline clip-path="url(#clip4402)" style="stroke:#ffa500; stroke-width:1; stroke-opacity:1; fill:none" points="
  29.1292,148.032 53.0938,139.915 77.0584,151.36 101.023,160.764 124.988,147.573 148.952,135.953 172.917,110.405 196.881,98.5487 220.846,114.631 244.811,126.529 
  268.775,134.035 292.74,135.091 316.704,123.513 340.669,111.934 364.634,97.8954 388.598,84.8296 412.563,74.0851 436.527,65.9259 460.492,62.298 484.457,59.0733 
  508.421,63.1876 532.386,60.8524 556.35,69.0811 580.315,98.7711 
  "/>
<polygon clip-path="url(#clip4402)" points="
29.1292,112.115 53.0938,102.441 77.0584,111.996 101.023,117.953 124.988,102.872 148.952,92.0297 172.917,68.261 196.881,56.5157 220.846,73.265 244.811,85.4968 
  268.775,91.8907 292.74,92.1687 316.704,81.8133 340.669,73.682 364.634,64.6471 388.598,56.0292 412.563,48.1758 436.527,42.6854 460.492,45.3959 484.457,48.1758 
  508.421,53.7357 532.386,50.9558 556.35,56.5157 580.315,81.5354 580.315,98.7711 556.35,69.0811 532.386,60.8524 508.421,63.1876 484.457,59.0733 460.492,62.298 
  436.527,65.9259 412.563,74.0851 388.598,84.8296 364.634,97.8954 340.669,111.934 316.704,123.513 292.74,135.091 268.775,134.035 244.811,126.529 220.846,114.631 
  196.881,98.5487 172.917,110.405 148.952,135.953 124.988,147.573 101.023,160.764 77.0584,151.36 53.0938,139.915 29.1292,148.032 
  " fill="#0000ff" fill-opacity="1"/>
<polyline clip-path="url(#clip4402)" style="stroke:#0000ff; stroke-width:1; stroke-opacity:1; fill:none" points="
  29.1292,112.115 53.0938,102.441 77.0584,111.996 101.023,117.953 124.988,102.872 148.952,92.0297 172.917,68.261 196.881,56.5157 220.846,73.265 244.811,85.4968 
  268.775,91.8907 292.74,92.1687 316.704,81.8133 340.669,73.682 364.634,64.6471 388.598,56.0292 412.563,48.1758 436.527,42.6854 460.492,45.3959 484.457,48.1758 
  508.421,53.7357 532.386,50.9558 556.35,56.5157 580.315,81.5354 
  "/>
<polygon clip-path="url(#clip4402)" points="
29.1292,112.115 53.0938,102.441 77.0584,111.996 101.023,117.675 124.988,100.995 148.952,87.0953 172.917,59.2957 196.881,42.6159 220.846,53.7357 244.811,59.2957 
  268.775,62.0756 292.74,62.0756 316.704,56.5157 340.669,53.7357 364.634,50.9558 388.598,48.1758 412.563,45.3959 436.527,42.6159 460.492,45.3959 484.457,48.1758 
  508.421,53.7357 532.386,50.9558 556.35,56.5157 580.315,81.5354 580.315,81.5354 556.35,56.5157 532.386,50.9558 508.421,53.7357 484.457,48.1758 460.492,45.3959 
  436.527,42.6854 412.563,48.1758 388.598,56.0292 364.634,64.6471 340.669,73.682 316.704,81.8133 292.74,92.1687 268.775,91.8907 244.811,85.4968 220.846,73.265 
  196.881,56.5157 172.917,68.261 148.952,92.0297 124.988,102.872 101.023,117.953 77.0584,111.996 53.0938,102.441 29.1292,112.115 
  " fill="#ffff00" fill-opacity="1"/>
<polyline clip-path="url(#clip4402)" style="stroke:#ffff00; stroke-width:1; stroke-opacity:1; fill:none" points="
  29.1292,112.115 53.0938,102.441 77.0584,111.996 101.023,117.675 124.988,100.995 148.952,87.0953 172.917,59.2957 196.881,42.6159 220.846,53.7357 244.811,59.2957 
  268.775,62.0756 292.74,62.0756 316.704,56.5157 340.669,53.7357 364.634,50.9558 388.598,48.1758 412.563,45.3959 436.527,42.6159 460.492,45.3959 484.457,48.1758 
  508.421,53.7357 532.386,50.9558 556.35,56.5157 580.315,81.5354 
  "/>
<polygon clip-path="url(#clip4402)" points="
29.1292,112.115 53.0938,102.441 77.0584,111.996 101.023,117.675 124.988,100.995 148.952,87.0953 172.917,59.2957 196.881,42.6159 220.846,53.7357 244.811,59.2957 
  268.775,62.0756 292.74,62.0756 316.704,56.5157 340.669,53.7357 364.634,50.9558 388.598,48.1758 412.563,45.3959 436.527,42.6159 460.492,31.4961 484.457,34.276 
  508.421,39.8359 532.386,50.9558 556.35,56.5157 580.315,81.5354 580.315,81.5354 556.35,56.5157 532.386,50.9558 508.421,53.7357 484.457,48.1758 460.492,45.3959 
  436.527,42.6159 412.563,45.3959 388.598,48.1758 364.634,50.9558 340.669,53.7357 316.704,56.5157 292.74,62.0756 268.775,62.0756 244.811,59.2957 220.846,53.7357 
  196.881,42.6159 172.917,59.2957 148.952,87.0953 124.988,100.995 101.023,117.675 77.0584,111.996 53.0938,102.441 29.1292,112.115 
  " fill="#800080" fill-opacity="1"/>
<polyline clip-path="url(#clip4402)" style="stroke:#800080; stroke-width:1; stroke-opacity:1; fill:none" points="
  29.1292,112.115 53.0938,102.441 77.0584,111.996 101.023,117.675 124.988,100.995 148.952,87.0953 172.917,59.2957 196.881,42.6159 220.846,53.7357 244.811,59.2957 
  268.775,62.0756 292.74,62.0756 316.704,56.5157 340.669,53.7357 364.634,50.9558 388.598,48.1758 412.563,45.3959 436.527,42.6159 460.492,31.4961 484.457,34.276 
  508.421,39.8359 532.386,50.9558 556.35,56.5157 580.315,81.5354 
  "/>
<polygon clip-path="url(#clip4402)" points="
29.1292,278.913 53.0938,291.367 77.0584,290.151 101.023,278.913 124.988,278.913 148.952,278.913 172.917,278.913 196.881,278.913 220.846,278.913 244.811,278.913 
  268.775,278.913 292.74,278.913 316.704,278.913 340.669,278.913 364.634,278.913 388.598,278.913 412.563,278.913 436.527,278.913 460.492,278.913 484.457,278.913 
  508.421,278.913 532.386,278.913 556.35,278.913 580.315,278.913 580.315,278.913 556.35,278.913 532.386,278.913 508.421,278.913 484.457,278.913 460.492,278.913 
  436.527,278.913 412.563,278.913 388.598,278.913 364.634,278.913 340.669,278.913 316.704,278.913 292.74,278.913 268.775,278.913 244.811,278.913 220.846,278.913 
  196.881,278.913 172.917,278.913 148.952,278.913 124.988,278.913 101.023,278.913 77.0584,278.913 53.0938,278.913 29.1292,278.913 
  " fill="#800080" fill-opacity="1"/>
<polyline clip-path="url(#clip4402)" style="stroke:#800080; stroke-width:1; stroke-opacity:1; fill:none" points="
  29.1292,278.913 53.0938,291.367 77.0584,290.151 101.023,278.913 124.988,278.913 148.952,278.913 172.917,278.913 196.881,278.913 220.846,278.913 244.811,278.913 
  268.775,278.913 292.74,278.913 316.704,278.913 340.669,278.913 364.634,278.913 388.598,278.913 412.563,278.913 436.527,278.913 460.492,278.913 484.457,278.913 
  508.421,278.913 532.386,278.913 556.35,278.913 580.315,278.913 
  "/>
<polyline clip-path="url(#clip4402)" style="stroke:#000000; stroke-width:3; stroke-opacity:1; fill:none" points="
  29.1292,112.115 53.0938,114.895 77.0584,123.235 101.023,117.675 124.988,100.995 148.952,87.0953 172.917,59.2957 196.881,42.6159 220.846,53.7357 244.811,59.2957 
  268.775,62.0756 292.74,62.0756 316.704,56.5157 340.669,53.7357 364.634,50.9558 388.598,48.1758 412.563,45.3959 436.527,42.6159 460.492,31.4961 484.457,34.276 
  508.421,39.8359 532.386,50.9558 556.35,56.5157 580.315,81.5354 
  "/>
<polygon clip-path="url(#clip4400)" points="
409.357,255.367 562.315,255.367 562.315,104.167 409.357,104.167 
  " fill="#ffffff" fill-opacity="1"/>
<polyline clip-path="url(#clip4400)" style="stroke:#000000; stroke-width:1; stroke-opacity:1; fill:none" points="
  409.357,255.367 562.315,255.367 562.315,104.167 409.357,104.167 409.357,255.367 
  "/>
<polygon clip-path="url(#clip4400)" points="
415.357,125.335 451.357,125.335 451.357,113.239 415.357,113.239 415.357,125.335 
  " fill="#ff0000" fill-opacity="1"/>
<polyline clip-path="url(#clip4400)" style="stroke:#ff0000; stroke-width:1; stroke-opacity:1; fill:none" points="
  415.357,113.239 451.357,113.239 
  "/>
<g clip-path="url(#clip4400)">
<text style="fill:#000000; fill-opacity:1; font-family:Arial,Helvetica Neue,Helvetica,sans-serif; font-size:12; text-anchor:start;" transform="rotate(0, 457.357, 123.787)" x="457.357" y="123.787">Nuclear</text>
</g>
<polygon clip-path="url(#clip4400)" points="
415.357,140.455 451.357,140.455 451.357,128.359 415.357,128.359 415.357,140.455 
  " fill="#a52a2a" fill-opacity="1"/>
<polyline clip-path="url(#clip4400)" style="stroke:#a52a2a; stroke-width:1; stroke-opacity:1; fill:none" points="
  415.357,128.359 451.357,128.359 
  "/>
<g clip-path="url(#clip4400)">
<text style="fill:#000000; fill-opacity:1; font-family:Arial,Helvetica Neue,Helvetica,sans-serif; font-size:12; text-anchor:start;" transform="rotate(0, 457.357, 138.907)" x="457.357" y="138.907">Lignite</text>
</g>
<polygon clip-path="url(#clip4400)" points="
415.357,155.575 451.357,155.575 451.357,143.479 415.357,143.479 415.357,155.575 
  " fill="#808080" fill-opacity="1"/>
<polyline clip-path="url(#clip4400)" style="stroke:#808080; stroke-width:1; stroke-opacity:1; fill:none" points="
  415.357,143.479 451.357,143.479 
  "/>
<g clip-path="url(#clip4400)">
<text style="fill:#000000; fill-opacity:1; font-family:Arial,Helvetica Neue,Helvetica,sans-serif; font-size:12; text-anchor:start;" transform="rotate(0, 457.357, 154.027)" x="457.357" y="154.027">Hard coal</text>
</g>
<polygon clip-path="url(#clip4400)" points="
415.357,170.695 451.357,170.695 451.357,158.599 415.357,158.599 415.357,170.695 
  " fill="#ffa500" fill-opacity="1"/>
<polyline clip-path="url(#clip4400)" style="stroke:#ffa500; stroke-width:1; stroke-opacity:1; fill:none" points="
  415.357,158.599 451.357,158.599 
  "/>
<g clip-path="url(#clip4400)">
<text style="fill:#000000; fill-opacity:1; font-family:Arial,Helvetica Neue,Helvetica,sans-serif; font-size:12; text-anchor:start;" transform="rotate(0, 457.357, 169.147)" x="457.357" y="169.147">Natural gas</text>
</g>
<polygon clip-path="url(#clip4400)" points="
415.357,185.815 451.357,185.815 451.357,173.719 415.357,173.719 415.357,185.815 
  " fill="#0000ff" fill-opacity="1"/>
<polyline clip-path="url(#clip4400)" style="stroke:#0000ff; stroke-width:1; stroke-opacity:1; fill:none" points="
  415.357,173.719 451.357,173.719 
  "/>
<g clip-path="url(#clip4400)">
<text style="fill:#000000; fill-opacity:1; font-family:Arial,Helvetica Neue,Helvetica,sans-serif; font-size:12; text-anchor:start;" transform="rotate(0, 457.357, 184.267)" x="457.357" y="184.267">Wind</text>
</g>
<polygon clip-path="url(#clip4400)" points="
415.357,200.935 451.357,200.935 451.357,188.839 415.357,188.839 415.357,200.935 
  " fill="#ffff00" fill-opacity="1"/>
<polyline clip-path="url(#clip4400)" style="stroke:#ffff00; stroke-width:1; stroke-opacity:1; fill:none" points="
  415.357,188.839 451.357,188.839 
  "/>
<g clip-path="url(#clip4400)">
<text style="fill:#000000; fill-opacity:1; font-family:Arial,Helvetica Neue,Helvetica,sans-serif; font-size:12; text-anchor:start;" transform="rotate(0, 457.357, 199.387)" x="457.357" y="199.387">Solar</text>
</g>
<polygon clip-path="url(#clip4400)" points="
415.357,216.055 451.357,216.055 451.357,203.959 415.357,203.959 415.357,216.055 
  " fill="#800080" fill-opacity="1"/>
<polyline clip-path="url(#clip4400)" style="stroke:#800080; stroke-width:1; stroke-opacity:1; fill:none" points="
  415.357,203.959 451.357,203.959 
  "/>
<g clip-path="url(#clip4400)">
<text style="fill:#000000; fill-opacity:1; font-family:Arial,Helvetica Neue,Helvetica,sans-serif; font-size:12; text-anchor:start;" transform="rotate(0, 457.357, 214.507)" x="457.357" y="214.507">Storage gen</text>
</g>
<polygon clip-path="url(#clip4400)" points="
415.357,231.175 451.357,231.175 451.357,219.079 415.357,219.079 415.357,231.175 
  " fill="#800080" fill-opacity="1"/>
<polyline clip-path="url(#clip4400)" style="stroke:#800080; stroke-width:1; stroke-opacity:1; fill:none" points="
  415.357,219.079 451.357,219.079 
  "/>
<g clip-path="url(#clip4400)">
<text style="fill:#000000; fill-opacity:1; font-family:Arial,Helvetica Neue,Helvetica,sans-serif; font-size:12; text-anchor:start;" transform="rotate(0, 457.357, 229.627)" x="457.357" y="229.627">Storage withdraw</text>
</g>
<polyline clip-path="url(#clip4400)" style="stroke:#000000; stroke-width:3; stroke-opacity:1; fill:none" points="
  415.357,240.247 451.357,240.247 
  "/>
<g clip-path="url(#clip4400)">
<text style="fill:#000000; fill-opacity:1; font-family:Arial,Helvetica Neue,Helvetica,sans-serif; font-size:12; text-anchor:start;" transform="rotate(0, 457.357, 244.747)" x="457.357" y="244.747">Demand</text>
</g>
<polygon clip-path="url(#clip4400)" points="
29.1292,375.869 580.315,375.869 580.315,346.994 29.1292,346.994 
  " fill="#ffffff" fill-opacity="1"/>
<defs>
  <clipPath id="clip4403">
    <rect x="29" y="346" width="552" height="30"/>
  </clipPath>
</defs>
<polyline clip-path="url(#clip4403)" style="stroke:#000000; stroke-width:0.5; stroke-opacity:0.1; fill:none" points="
  124.988,375.869 124.988,346.994 
  "/>
<polyline clip-path="url(#clip4403)" style="stroke:#000000; stroke-width:0.5; stroke-opacity:0.1; fill:none" points="
  244.811,375.869 244.811,346.994 
  "/>
<polyline clip-path="url(#clip4403)" style="stroke:#000000; stroke-width:0.5; stroke-opacity:0.1; fill:none" points="
  364.634,375.869 364.634,346.994 
  "/>
<polyline clip-path="url(#clip4403)" style="stroke:#000000; stroke-width:0.5; stroke-opacity:0.1; fill:none" points="
  484.457,375.869 484.457,346.994 
  "/>
<polyline clip-path="url(#clip4403)" style="stroke:#000000; stroke-width:0.5; stroke-opacity:0.1; fill:none" points="
  29.1292,375.869 580.315,375.869 
  "/>
<polyline clip-path="url(#clip4403)" style="stroke:#000000; stroke-width:0.5; stroke-opacity:0.1; fill:none" points="
  29.1292,366.244 580.315,366.244 
  "/>
<polyline clip-path="url(#clip4403)" style="stroke:#000000; stroke-width:0.5; stroke-opacity:0.1; fill:none" points="
  29.1292,356.619 580.315,356.619 
  "/>
<polyline clip-path="url(#clip4403)" style="stroke:#000000; stroke-width:0.5; stroke-opacity:0.1; fill:none" points="
  29.1292,346.994 580.315,346.994 
  "/>
<polyline clip-path="url(#clip4400)" style="stroke:#000000; stroke-width:1; stroke-opacity:1; fill:none" points="
  29.1292,375.869 580.315,375.869 
  "/>
<polyline clip-path="url(#clip4400)" style="stroke:#000000; stroke-width:1; stroke-opacity:1; fill:none" points="
  29.1292,375.869 29.1292,346.994 
  "/>
<polyline clip-path="url(#clip4400)" style="stroke:#000000; stroke-width:1; stroke-opacity:1; fill:none" points="
  124.988,375.869 124.988,375.436 
  "/>
<polyline clip-path="url(#clip4400)" style="stroke:#000000; stroke-width:1; stroke-opacity:1; fill:none" points="
  244.811,375.869 244.811,375.436 
  "/>
<polyline clip-path="url(#clip4400)" style="stroke:#000000; stroke-width:1; stroke-opacity:1; fill:none" points="
  364.634,375.869 364.634,375.436 
  "/>
<polyline clip-path="url(#clip4400)" style="stroke:#000000; stroke-width:1; stroke-opacity:1; fill:none" points="
  484.457,375.869 484.457,375.436 
  "/>
<polyline clip-path="url(#clip4400)" style="stroke:#000000; stroke-width:1; stroke-opacity:1; fill:none" points="
  29.1292,375.869 37.397,375.869 
  "/>
<polyline clip-path="url(#clip4400)" style="stroke:#000000; stroke-width:1; stroke-opacity:1; fill:none" points="
  29.1292,366.244 37.397,366.244 
  "/>
<polyline clip-path="url(#clip4400)" style="stroke:#000000; stroke-width:1; stroke-opacity:1; fill:none" points="
  29.1292,356.619 37.397,356.619 
  "/>
<polyline clip-path="url(#clip4400)" style="stroke:#000000; stroke-width:1; stroke-opacity:1; fill:none" points="
  29.1292,346.994 37.397,346.994 
  "/>
<g clip-path="url(#clip4400)">
<text style="fill:#000000; fill-opacity:1; font-family:Arial,Helvetica Neue,Helvetica,sans-serif; font-size:12; text-anchor:middle;" transform="rotate(0, 124.988, 389.669)" x="124.988" y="389.669">5</text>
</g>
<g clip-path="url(#clip4400)">
<text style="fill:#000000; fill-opacity:1; font-family:Arial,Helvetica Neue,Helvetica,sans-serif; font-size:12; text-anchor:middle;" transform="rotate(0, 244.811, 389.669)" x="244.811" y="389.669">10</text>
</g>
<g clip-path="url(#clip4400)">
<text style="fill:#000000; fill-opacity:1; font-family:Arial,Helvetica Neue,Helvetica,sans-serif; font-size:12; text-anchor:middle;" transform="rotate(0, 364.634, 389.669)" x="364.634" y="389.669">15</text>
</g>
<g clip-path="url(#clip4400)">
<text style="fill:#000000; fill-opacity:1; font-family:Arial,Helvetica Neue,Helvetica,sans-serif; font-size:12; text-anchor:middle;" transform="rotate(0, 484.457, 389.669)" x="484.457" y="389.669">20</text>
</g>
<g clip-path="url(#clip4400)">
<text style="fill:#000000; fill-opacity:1; font-family:Arial,Helvetica Neue,Helvetica,sans-serif; font-size:12; text-anchor:end;" transform="rotate(0, 23.1292, 380.369)" x="23.1292" y="380.369">0</text>
</g>
<g clip-path="url(#clip4400)">
<text style="fill:#000000; fill-opacity:1; font-family:Arial,Helvetica Neue,Helvetica,sans-serif; font-size:12; text-anchor:end;" transform="rotate(0, 23.1292, 370.744)" x="23.1292" y="370.744">5</text>
</g>
<g clip-path="url(#clip4400)">
<text style="fill:#000000; fill-opacity:1; font-family:Arial,Helvetica Neue,Helvetica,sans-serif; font-size:12; text-anchor:end;" transform="rotate(0, 23.1292, 361.119)" x="23.1292" y="361.119">10</text>
</g>
<g clip-path="url(#clip4400)">
<text style="fill:#000000; fill-opacity:1; font-family:Arial,Helvetica Neue,Helvetica,sans-serif; font-size:12; text-anchor:end;" transform="rotate(0, 23.1292, 351.494)" x="23.1292" y="351.494">15</text>
</g>
<g clip-path="url(#clip4400)">
<text style="fill:#000000; fill-opacity:1; font-family:Arial,Helvetica Neue,Helvetica,sans-serif; font-size:21; text-anchor:middle;" transform="rotate(0, 304.722, 333.498)" x="304.722" y="333.498">Storage level</text>
</g>
<polyline clip-path="url(#clip4403)" style="stroke:#000000; stroke-width:2; stroke-opacity:1; fill:none" points="
  29.1292,361.431 53.0938,353.842 77.0584,346.994 101.023,346.994 124.988,346.994 148.952,346.994 172.917,346.994 196.881,346.994 220.846,346.994 244.811,346.994 
  268.775,346.994 292.74,346.994 316.704,346.994 340.669,346.994 364.634,346.994 388.598,346.994 412.563,346.994 436.527,346.994 460.492,356.619 484.457,366.244 
  508.421,375.869 532.386,375.869 556.35,375.869 580.315,375.869 
  "/>
</svg>
